<svg width="238" height="208" viewBox="0 0 238 208" fill="none" xmlns="http://www.w3.org/2000/svg">
<path d="M23.6016 168.3C23.6016 168.134 23.7359 168 23.9016 168H30.673C30.8387 168 30.973 168.134 30.973 168.3V207.7C30.973 207.866 30.8387 208 30.673 208H23.9016C23.7359 208 23.6016 207.866 23.6016 207.7V194.072C23.6016 193.786 23.2318 193.656 23.0395 193.866C20.9094 196.203 18.011 197.371 14.3444 197.371C10.4968 197.371 7.20155 195.924 4.45869 193.029C1.75393 190.095 0.40155 186.514 0.40155 182.286C0.40155 178.057 1.75393 174.495 4.45869 171.6C7.20155 168.667 10.4968 167.2 14.3444 167.2C18.011 167.2 20.9094 168.368 23.0395 170.705C23.2318 170.916 23.6016 170.785 23.6016 170.5V168.3ZM10.0016 188.114C11.5254 189.6 13.4301 190.343 15.7158 190.343C18.0016 190.343 19.8873 189.6 21.373 188.114C22.8587 186.59 23.6016 184.648 23.6016 182.286C23.6016 179.924 22.8587 178 21.373 176.514C19.8873 174.99 18.0016 174.229 15.7158 174.229C13.4301 174.229 11.5254 174.99 10.0016 176.514C8.51584 178 7.77298 179.924 7.77298 182.286C7.77298 184.648 8.51584 186.59 10.0016 188.114Z" fill="#E0ECFF"/>
<path d="M56.5716 168.3C56.5716 168.134 56.706 168 56.8716 168H63.6431C63.8088 168 63.9431 168.134 63.9431 168.3V196.271C63.9431 196.437 63.8088 196.571 63.6431 196.571H56.8716C56.706 196.571 56.5716 196.437 56.5716 196.271V194.356C56.5716 194.06 56.1708 193.932 55.9802 194.159C54.1806 196.301 51.5397 197.371 48.0574 197.371C44.9335 197.371 42.3431 196.324 40.2859 194.229C38.2669 192.133 37.2574 189.238 37.2574 185.543V168.3C37.2574 168.134 37.3917 168 37.5574 168H44.3288C44.4945 168 44.6288 168.134 44.6288 168.3V184.629C44.6288 186.533 45.1431 188 46.1716 189.029C47.2002 190.019 48.5716 190.514 50.2859 190.514C52.1907 190.514 53.7145 189.924 54.8574 188.743C56.0002 187.562 56.5716 185.79 56.5716 183.429V168.3Z" fill="#E0ECFF"/>
<path d="M92.4087 168.3C92.4087 168.134 92.543 168 92.7087 168H99.4801C99.6458 168 99.7801 168.134 99.7801 168.3V196.271C99.7801 196.437 99.6458 196.571 99.4801 196.571H92.7087C92.543 196.571 92.4087 196.437 92.4087 196.271V194.06C92.4087 193.776 92.0422 193.645 91.8496 193.853C89.6862 196.199 86.7678 197.371 83.0944 197.371C79.2849 197.371 76.0087 195.924 73.2658 193.029C70.5611 190.095 69.2087 186.514 69.2087 182.286C69.2087 178.057 70.5611 174.495 73.2658 171.6C76.0087 168.667 79.2849 167.2 83.0944 167.2C86.7678 167.2 89.6862 168.373 91.8496 170.718C92.0422 170.927 92.4087 170.796 92.4087 170.512V168.3ZM78.8087 188.114C80.2944 189.6 82.1801 190.343 84.4658 190.343C86.7515 190.343 88.6373 189.6 90.123 188.114C91.6468 186.59 92.4087 184.648 92.4087 182.286C92.4087 179.924 91.6468 178 90.123 176.514C88.6373 174.99 86.7515 174.229 84.4658 174.229C82.1801 174.229 80.2944 174.99 78.8087 176.514C77.323 178 76.5801 179.924 76.5801 182.286C76.5801 184.648 77.323 186.59 78.8087 188.114Z" fill="#E0ECFF"/>
<path d="M122.35 167.2C125.474 167.2 128.045 168.248 130.064 170.343C132.122 172.438 133.15 175.333 133.15 179.029V196.271C133.15 196.437 133.016 196.571 132.85 196.571H126.079C125.913 196.571 125.779 196.437 125.779 196.271V179.943C125.779 178.038 125.265 176.59 124.236 175.6C123.207 174.571 121.836 174.057 120.122 174.057C118.217 174.057 116.693 174.648 115.55 175.829C114.407 177.01 113.836 178.781 113.836 181.143V196.271C113.836 196.437 113.702 196.571 113.536 196.571H106.764C106.599 196.571 106.465 196.437 106.465 196.271V168.3C106.465 168.134 106.599 168 106.764 168H113.536C113.702 168 113.836 168.134 113.836 168.3V170.215C113.836 170.511 114.237 170.639 114.427 170.413C116.227 168.271 118.868 167.2 122.35 167.2Z" fill="#E0ECFF"/>
<path d="M155.787 174.786C155.787 174.951 155.653 175.086 155.487 175.086H149.63C149.464 175.086 149.33 175.22 149.33 175.386V186.971C149.33 187.962 149.578 188.686 150.073 189.143C150.568 189.6 151.292 189.867 152.244 189.943C153.125 189.978 154.2 189.964 155.471 189.902C155.643 189.894 155.787 190.03 155.787 190.202V196.303C155.787 196.456 155.671 196.585 155.52 196.601C150.594 197.126 147.103 196.64 145.044 195.143C142.987 193.619 141.959 190.895 141.959 186.971V175.386C141.959 175.22 141.824 175.086 141.659 175.086H137.287C137.122 175.086 136.987 174.951 136.987 174.786V168.3C136.987 168.134 137.122 168 137.287 168H141.659C141.824 168 141.959 167.866 141.959 167.7V162.451C141.959 162.319 142.045 162.202 142.172 162.164L148.943 160.117C149.136 160.059 149.33 160.203 149.33 160.404V167.7C149.33 167.866 149.464 168 149.63 168H155.487C155.653 168 155.787 168.134 155.787 168.3V174.786Z" fill="#E0ECFF"/>
<path d="M180.288 168.3C180.288 168.134 180.422 168 180.588 168H187.36C187.525 168 187.66 168.134 187.66 168.3V196.271C187.66 196.437 187.525 196.571 187.36 196.571H180.588C180.422 196.571 180.288 196.437 180.288 196.271V194.356C180.288 194.06 179.887 193.932 179.697 194.159C177.897 196.301 175.256 197.371 171.774 197.371C168.65 197.371 166.06 196.324 164.002 194.229C161.983 192.133 160.974 189.238 160.974 185.543V168.3C160.974 168.134 161.108 168 161.274 168H168.045C168.211 168 168.345 168.134 168.345 168.3V184.629C168.345 186.533 168.86 188 169.888 189.029C170.917 190.019 172.288 190.514 174.002 190.514C175.907 190.514 177.431 189.924 178.574 188.743C179.717 187.562 180.288 185.79 180.288 183.429V168.3Z" fill="#E0ECFF"/>
<path d="M226.011 167.2C229.287 167.2 231.897 168.267 233.84 170.4C235.82 172.533 236.811 175.39 236.811 178.971V196.271C236.811 196.437 236.677 196.571 236.511 196.571H229.74C229.574 196.571 229.439 196.437 229.439 196.271V179.486C229.439 177.771 229.02 176.438 228.182 175.486C227.344 174.533 226.163 174.057 224.64 174.057C222.963 174.057 221.649 174.61 220.697 175.714C219.782 176.819 219.325 178.419 219.325 180.514V196.271C219.325 196.437 219.191 196.571 219.025 196.571H212.254C212.088 196.571 211.954 196.437 211.954 196.271V179.486C211.954 177.771 211.535 176.438 210.697 175.486C209.859 174.533 208.678 174.057 207.154 174.057C205.516 174.057 204.201 174.61 203.211 175.714C202.259 176.819 201.782 178.419 201.782 180.514V196.271C201.782 196.437 201.648 196.571 201.482 196.571H194.711C194.545 196.571 194.411 196.437 194.411 196.271V168.3C194.411 168.134 194.545 168 194.711 168H201.482C201.648 168 201.782 168.134 201.782 168.3V170.044C201.782 170.34 202.183 170.468 202.374 170.242C204.083 168.214 206.533 167.2 209.725 167.2C213.061 167.2 215.568 168.442 217.248 170.927C217.369 171.106 217.636 171.114 217.767 170.942C219.666 168.447 222.414 167.2 226.011 167.2Z" fill="#E0ECFF"/>
<path d="M135 64C135 72.8366 127.837 80 119 80C110.163 80 103 72.8366 103 64C103 55.1634 110.163 48 119 48C127.837 48 135 55.1634 135 64Z" fill="#E0ECFF"/>
<path d="M84 64C84 28.6538 101.327 0 119 0C123.342 0 127.483 1.72988 131.258 4.86387C131.437 5.0121 131.248 5.30149 131.033 5.21375C129.084 4.4179 127.067 4 125 4C108.431 4 95 30.8629 95 64C95 70.9208 95.5859 77.5679 96.6638 83.7538C96.6763 83.8251 96.7262 83.8839 96.7946 83.9077C102.377 85.8529 108.42 87.4378 114.788 88.5606C147.422 94.3148 176.209 85.7521 179.086 69.4353C179.445 67.4001 179.384 65.3404 178.938 63.2829C178.889 63.0561 179.207 62.9204 179.322 63.1221C181.753 67.3844 182.737 71.7623 181.983 76.0387C178.914 93.4433 147.687 105.531 112.878 99.3935C108.431 98.6094 104.141 97.5657 100.046 96.3054C99.8913 96.2578 99.7473 96.4056 99.7971 96.5595C105.141 113.073 114.433 124 125 124C127.067 124 129.084 123.582 131.033 122.786C131.248 122.699 131.437 122.988 131.258 123.136C127.483 126.27 123.342 128 119 128C106.286 128 93.7519 113.172 87.7181 91.6904C87.7023 91.6339 87.6617 91.5863 87.6084 91.5617C66.7074 81.9169 53.6709 66.6111 55.9278 53.8117C56.6818 49.5353 59.1044 45.7582 62.8464 42.5843C63.0234 42.4342 63.2756 42.6703 63.1519 42.8666C62.0297 44.6478 61.2678 46.5623 60.9089 48.5975C59.0284 59.2621 68.6819 70.5997 84.7072 78.7814C84.8512 78.8549 85.0199 78.7365 84.9977 78.5764C84.3487 73.8941 84 69.0144 84 64Z" fill="#E0ECFF"/>
</svg>
