<svg width="128" height="128" viewBox="0 0 128 128" fill="none" xmlns="http://www.w3.org/2000/svg">
<circle cx="64" cy="64" r="16" fill="#E0ECFF"/>
<path fill-rule="evenodd" clip-rule="evenodd" d="M64 128C68.3424 128 72.4828 126.27 76.2583 123.136C76.4368 122.988 76.2481 122.699 76.0333 122.786C74.0843 123.582 72.0665 124 70 124C53.4315 124 40 97.1371 40 64C40 30.8629 53.4315 4 70 4C72.0666 4 74.0843 4.4179 76.0332 5.21375C76.2481 5.30149 76.4368 5.0121 76.2583 4.86387C72.4828 1.72988 68.3424 0 64 0C46.3269 0 29 28.6538 29 64C29 99.3462 46.3269 128 64 128Z" fill="#E0ECFF"/>
<path fill-rule="evenodd" clip-rule="evenodd" d="M126.983 76.0387C127.737 71.7623 126.753 67.3844 124.322 63.1221C124.207 62.9205 123.889 63.0561 123.938 63.2829C124.384 65.3405 124.445 67.4001 124.086 69.4353C121.209 85.7521 92.4216 94.3148 59.7879 88.5606C27.1543 82.8064 3.03181 64.9143 5.9089 48.5975C6.26776 46.5623 7.02968 44.6478 8.15188 42.8667C8.2756 42.6703 8.02337 42.4342 7.84638 42.5843C4.1044 45.7582 1.68183 49.5353 0.927784 53.8118C-2.14112 71.2164 23.0686 93.2557 57.8778 99.3935C92.687 105.531 123.914 93.4433 126.983 76.0387Z" fill="#E0ECFF"/>
</svg>
