<svg width="475" height="128" viewBox="0 0 475 128" fill="none" xmlns="http://www.w3.org/2000/svg">
<path d="M190.163 42.9667C190.163 42.801 190.298 42.6667 190.463 42.6667H199.692C199.858 42.6667 199.992 42.801 199.992 42.9667V95.7C199.992 95.8657 199.858 96 199.692 96H190.463C190.298 96 190.163 95.8657 190.163 95.7V77.1383C190.163 76.853 189.796 76.7237 189.608 76.9383C186.751 80.1985 182.821 81.8286 177.82 81.8286C172.69 81.8286 168.297 79.8984 164.64 76.0381C161.033 72.127 159.23 67.3524 159.23 61.7143C159.23 56.0762 161.033 51.327 164.64 47.4667C168.297 43.5556 172.69 41.6 177.82 41.6C182.821 41.6 186.751 43.2301 189.608 46.4903C189.796 46.7049 190.163 46.5756 190.163 46.2902V42.9667ZM172.03 69.4857C174.062 71.4667 176.601 72.4571 179.649 72.4571C182.697 72.4571 185.211 71.4667 187.192 69.4857C189.173 67.454 190.163 64.8635 190.163 61.7143C190.163 58.5651 189.173 56 187.192 54.019C185.211 51.9873 182.697 50.9714 179.649 50.9714C176.601 50.9714 174.062 51.9873 172.03 54.019C170.049 56 169.059 58.5651 169.059 61.7143C169.059 64.8635 170.049 67.454 172.03 69.4857Z" fill="#E0ECFF"/>
<path d="M234.123 42.9667C234.123 42.801 234.258 42.6667 234.423 42.6667H243.652C243.818 42.6667 243.952 42.801 243.952 42.9667V80.4619C243.952 80.6276 243.818 80.7619 243.652 80.7619H234.423C234.258 80.7619 234.123 80.6276 234.123 80.4619V77.4802C234.123 77.1839 233.727 77.0588 233.542 77.2908C231.14 80.316 227.55 81.8286 222.771 81.8286C218.606 81.8286 215.152 80.4317 212.409 77.6381C209.717 74.8444 208.371 70.9841 208.371 66.0571V42.9667C208.371 42.801 208.505 42.6667 208.671 42.6667H217.9C218.065 42.6667 218.2 42.801 218.2 42.9667V64.8381C218.2 67.3778 218.885 69.3333 220.257 70.7048C221.628 72.0254 223.457 72.6857 225.742 72.6857C228.282 72.6857 230.314 71.8984 231.838 70.3238C233.362 68.7492 234.123 66.3873 234.123 63.2381V42.9667Z" fill="#E0ECFF"/>
<path d="M281.906 42.9667C281.906 42.801 282.04 42.6667 282.206 42.6667H291.435C291.6 42.6667 291.735 42.801 291.735 42.9667V80.4619C291.735 80.6276 291.6 80.7619 291.435 80.7619H282.206C282.04 80.7619 281.906 80.6276 281.906 80.4619V77.1265C281.906 76.8424 281.542 76.7127 281.353 76.9251C278.45 80.1941 274.495 81.8286 269.487 81.8286C264.408 81.8286 260.04 79.8984 256.382 76.0381C252.776 72.127 250.973 67.3524 250.973 61.7143C250.973 56.0762 252.776 51.327 256.382 47.4667C260.04 43.5556 264.408 41.6 269.487 41.6C274.495 41.6 278.45 43.2345 281.353 46.5035C281.542 46.7159 281.906 46.5861 281.906 46.3021V42.9667ZM263.773 69.4857C265.754 71.4667 268.268 72.4571 271.316 72.4571C274.363 72.4571 276.878 71.4667 278.859 69.4857C280.89 67.454 281.906 64.8635 281.906 61.7143C281.906 58.5651 280.89 56 278.859 54.019C276.878 51.9873 274.363 50.9714 271.316 50.9714C268.268 50.9714 265.754 51.9873 263.773 54.019C261.792 56 260.801 58.5651 260.801 61.7143C260.801 64.8635 261.792 67.454 263.773 69.4857Z" fill="#E0ECFF"/>
<path d="M321.828 41.6C325.993 41.6 329.422 42.9968 332.114 45.7905C334.857 48.5841 336.228 52.4444 336.228 57.3714V80.4619C336.228 80.6276 336.094 80.7619 335.928 80.7619H326.7C326.534 80.7619 326.4 80.6276 326.4 80.4619V58.5905C326.4 56.0508 325.714 54.1206 324.342 52.8C322.971 51.4286 321.142 50.7429 318.857 50.7429C316.317 50.7429 314.285 51.5302 312.762 53.1048C311.238 54.6794 310.476 57.0413 310.476 60.1905V80.4619C310.476 80.6276 310.342 80.7619 310.176 80.7619H300.947C300.782 80.7619 300.647 80.6276 300.647 80.4619V42.9667C300.647 42.801 300.782 42.6667 300.947 42.6667H310.176C310.342 42.6667 310.476 42.801 310.476 42.9667V45.9483C310.476 46.2447 310.873 46.3698 311.057 46.1377C313.459 43.1126 317.049 41.6 321.828 41.6Z" fill="#E0ECFF"/>
<path d="M366.411 51.8143C366.411 51.98 366.277 52.1143 366.111 52.1143H358.101C357.936 52.1143 357.801 52.2486 357.801 52.4143V67.9619C357.801 69.2825 358.132 70.2476 358.792 70.8571C359.452 71.4667 360.417 71.8222 361.687 71.9238C362.885 71.9717 364.354 71.9518 366.095 71.8641C366.266 71.8555 366.411 71.9922 366.411 72.1643V80.4938C366.411 80.6465 366.295 80.7751 366.143 80.7915C359.529 81.5067 354.844 80.8619 352.087 78.8571C349.344 76.8254 347.973 73.1937 347.973 67.9619V52.4143C347.973 52.2486 347.839 52.1143 347.673 52.1143H341.644C341.479 52.1143 341.344 51.98 341.344 51.8143V42.9667C341.344 42.801 341.479 42.6667 341.644 42.6667H347.673C347.839 42.6667 347.973 42.5324 347.973 42.3667V35.1941C347.973 35.0619 348.059 34.9453 348.186 34.907L357.415 32.1169C357.607 32.0587 357.801 32.2029 357.801 32.4041V42.3667C357.801 42.5324 357.936 42.6667 358.101 42.6667H366.111C366.277 42.6667 366.411 42.801 366.411 42.9667V51.8143Z" fill="#E0ECFF"/>
<path d="M399.079 42.9667C399.079 42.801 399.213 42.6667 399.379 42.6667H408.607C408.773 42.6667 408.907 42.801 408.907 42.9667V80.4619C408.907 80.6276 408.773 80.7619 408.607 80.7619H399.379C399.213 80.7619 399.079 80.6276 399.079 80.4619V77.4802C399.079 77.1839 398.682 77.0588 398.498 77.2908C396.096 80.316 392.505 81.8286 387.726 81.8286C383.561 81.8286 380.107 80.4317 377.365 77.6381C374.672 74.8444 373.326 70.9841 373.326 66.0571V42.9667C373.326 42.801 373.461 42.6667 373.626 42.6667H382.855C383.021 42.6667 383.155 42.801 383.155 42.9667V64.8381C383.155 67.3778 383.841 69.3333 385.212 70.7048C386.584 72.0254 388.412 72.6857 390.698 72.6857C393.238 72.6857 395.269 71.8984 396.793 70.3238C398.317 68.7492 399.079 66.3873 399.079 63.2381V42.9667Z" fill="#E0ECFF"/>
<path d="M460.042 41.6C464.411 41.6 467.89 43.0222 470.481 45.8667C473.122 48.7111 474.442 52.5206 474.442 57.2952V80.4619C474.442 80.6276 474.308 80.7619 474.142 80.7619H464.914C464.748 80.7619 464.614 80.6276 464.614 80.4619V57.981C464.614 55.6952 464.055 53.9175 462.938 52.6476C461.82 51.3778 460.246 50.7429 458.214 50.7429C455.979 50.7429 454.227 51.4794 452.957 52.9524C451.738 54.4254 451.128 56.5587 451.128 59.3524V80.4619C451.128 80.6276 450.994 80.7619 450.828 80.7619H441.6C441.434 80.7619 441.3 80.6276 441.3 80.4619V57.981C441.3 55.6952 440.741 53.9175 439.623 52.6476C438.506 51.3778 436.931 50.7429 434.9 50.7429C432.716 50.7429 430.963 51.4794 429.642 52.9524C428.373 54.4254 427.738 56.5587 427.738 59.3524V80.4619C427.738 80.6276 427.603 80.7619 427.438 80.7619H418.209C418.043 80.7619 417.909 80.6276 417.909 80.4619V42.9667C417.909 42.801 418.043 42.6667 418.209 42.6667H427.438C427.603 42.6667 427.738 42.801 427.738 42.9667V45.72C427.738 46.0163 428.134 46.1415 428.319 45.9097C430.605 43.0366 433.941 41.6 438.328 41.6C442.833 41.6 446.204 43.299 448.443 46.6969C448.563 46.8779 448.829 46.8858 448.959 46.7119C451.494 43.304 455.188 41.6 460.042 41.6Z" fill="#E0ECFF"/>
<path d="M80 64C80 72.8366 72.8366 80 64 80C55.1634 80 48 72.8366 48 64C48 55.1634 55.1634 48 64 48C72.8366 48 80 55.1634 80 64Z" fill="#E0ECFF"/>
<path d="M29 64C29 28.6538 46.3269 0 64 0C68.3424 0 72.4828 1.72988 76.2583 4.86387C76.4368 5.0121 76.2481 5.30149 76.0332 5.21375C74.0843 4.4179 72.0666 4 70 4C53.4315 4 40 30.8629 40 64C40 70.9208 40.5859 77.5679 41.6638 83.7538C41.6763 83.8251 41.7262 83.8839 41.7946 83.9077C47.3768 85.8529 53.4203 87.4378 59.7879 88.5606C92.4216 94.3148 121.209 85.7521 124.086 69.4353C124.445 67.4001 124.384 65.3404 123.938 63.2829C123.889 63.0561 124.207 62.9204 124.322 63.1221C126.753 67.3844 127.737 71.7623 126.983 76.0387C123.914 93.4433 92.687 105.531 57.8778 99.3935C53.4308 98.6094 49.1406 97.5657 45.0459 96.3054C44.8913 96.2578 44.7473 96.4056 44.7971 96.5595C50.1414 113.073 59.4327 124 70 124C72.0665 124 74.0843 123.582 76.0332 122.786C76.2481 122.699 76.4368 122.988 76.2583 123.136C72.4828 126.27 68.3424 128 64 128C51.2863 128 38.7519 113.172 32.7181 91.6904C32.7023 91.6339 32.6617 91.5863 32.6084 91.5617C11.7074 81.9169 -1.32909 66.6111 0.927781 53.8117C1.68183 49.5353 4.1044 45.7582 7.84638 42.5843C8.02337 42.4342 8.27559 42.6703 8.15188 42.8666C7.02968 44.6478 6.26775 46.5623 5.9089 48.5975C4.02844 59.2621 13.6819 70.5997 29.7072 78.7814C29.8512 78.8549 30.0199 78.7365 29.9977 78.5764C29.3487 73.8941 29 69.0144 29 64Z" fill="#E0ECFF"/>
</svg>
