<svg width="464" height="128" viewBox="0 0 464 128" fill="none" xmlns="http://www.w3.org/2000/svg">
<path d="M178.933 42.9667C178.933 42.801 179.068 42.6667 179.233 42.6667H188.462C188.628 42.6667 188.762 42.801 188.762 42.9667V95.7C188.762 95.8657 188.628 96 188.462 96H179.233C179.068 96 178.933 95.8657 178.933 95.7V77.1383C178.933 76.853 178.566 76.7237 178.378 76.9383C175.521 80.1985 171.591 81.8286 166.59 81.8286C161.46 81.8286 157.067 79.8984 153.41 76.0381C149.803 72.127 148 67.3524 148 61.7143C148 56.0762 149.803 51.327 153.41 47.4667C157.067 43.5556 161.46 41.6 166.59 41.6C171.591 41.6 175.521 43.2301 178.378 46.4903C178.566 46.7049 178.933 46.5756 178.933 46.2902V42.9667ZM160.8 69.4857C162.832 71.4667 165.371 72.4571 168.419 72.4571C171.467 72.4571 173.981 71.4667 175.962 69.4857C177.943 67.454 178.933 64.8635 178.933 61.7143C178.933 58.5651 177.943 56 175.962 54.019C173.981 51.9873 171.467 50.9714 168.419 50.9714C165.371 50.9714 162.832 51.9873 160.8 54.019C158.819 56 157.829 58.5651 157.829 61.7143C157.829 64.8635 158.819 67.454 160.8 69.4857Z" fill="white"/>
<path d="M222.893 42.9667C222.893 42.801 223.028 42.6667 223.193 42.6667H232.422C232.588 42.6667 232.722 42.801 232.722 42.9667V80.4619C232.722 80.6276 232.588 80.7619 232.422 80.7619H223.193C223.028 80.7619 222.893 80.6276 222.893 80.4619V77.4802C222.893 77.1839 222.497 77.0588 222.312 77.2908C219.91 80.316 216.32 81.8286 211.541 81.8286C207.376 81.8286 203.922 80.4317 201.179 77.6381C198.487 74.8444 197.141 70.9841 197.141 66.0571V42.9667C197.141 42.801 197.275 42.6667 197.441 42.6667H206.67C206.835 42.6667 206.97 42.801 206.97 42.9667V64.8381C206.97 67.3778 207.655 69.3333 209.027 70.7048C210.398 72.0254 212.227 72.6857 214.512 72.6857C217.052 72.6857 219.084 71.8984 220.608 70.3238C222.132 68.7492 222.893 66.3873 222.893 63.2381V42.9667Z" fill="white"/>
<path d="M270.676 42.9667C270.676 42.801 270.811 42.6667 270.976 42.6667H280.205C280.37 42.6667 280.505 42.801 280.505 42.9667V80.4619C280.505 80.6276 280.37 80.7619 280.205 80.7619H270.976C270.811 80.7619 270.676 80.6276 270.676 80.4619V77.1265C270.676 76.8424 270.312 76.7127 270.123 76.9251C267.22 80.1941 263.265 81.8286 258.257 81.8286C253.178 81.8286 248.81 79.8984 245.152 76.0381C241.546 72.127 239.743 67.3524 239.743 61.7143C239.743 56.0762 241.546 51.327 245.152 47.4667C248.81 43.5556 253.178 41.6 258.257 41.6C263.265 41.6 267.22 43.2345 270.123 46.5035C270.312 46.7159 270.676 46.5861 270.676 46.3021V42.9667ZM252.543 69.4857C254.524 71.4667 257.038 72.4571 260.086 72.4571C263.133 72.4571 265.648 71.4667 267.629 69.4857C269.66 67.454 270.676 64.8635 270.676 61.7143C270.676 58.5651 269.66 56 267.629 54.019C265.648 51.9873 263.133 50.9714 260.086 50.9714C257.038 50.9714 254.524 51.9873 252.543 54.019C250.562 56 249.571 58.5651 249.571 61.7143C249.571 64.8635 250.562 67.454 252.543 69.4857Z" fill="white"/>
<path d="M310.598 41.6C314.763 41.6 318.192 42.9968 320.884 45.7905C323.627 48.5841 324.998 52.4444 324.998 57.3714V80.4619C324.998 80.6276 324.864 80.7619 324.698 80.7619H315.47C315.304 80.7619 315.17 80.6276 315.17 80.4619V58.5905C315.17 56.0508 314.484 54.1206 313.112 52.8C311.741 51.4286 309.913 50.7429 307.627 50.7429C305.087 50.7429 303.055 51.5302 301.532 53.1048C300.008 54.6794 299.246 57.0413 299.246 60.1905V80.4619C299.246 80.6276 299.112 80.7619 298.946 80.7619H289.717C289.552 80.7619 289.417 80.6276 289.417 80.4619V42.9667C289.417 42.801 289.552 42.6667 289.717 42.6667H298.946C299.112 42.6667 299.246 42.801 299.246 42.9667V45.9483C299.246 46.2447 299.643 46.3698 299.827 46.1377C302.229 43.1126 305.819 41.6 310.598 41.6Z" fill="white"/>
<path d="M355.181 51.8143C355.181 51.98 355.047 52.1143 354.881 52.1143H346.871C346.706 52.1143 346.571 52.2486 346.571 52.4143V67.9619C346.571 69.2825 346.902 70.2476 347.562 70.8571C348.222 71.4667 349.187 71.8222 350.457 71.9238C351.655 71.9717 353.124 71.9518 354.865 71.8641C355.036 71.8555 355.181 71.9922 355.181 72.1643V80.4938C355.181 80.6465 355.065 80.7751 354.913 80.7915C348.299 81.5067 343.614 80.8619 340.857 78.8571C338.114 76.8254 336.743 73.1937 336.743 67.9619V52.4143C336.743 52.2486 336.609 52.1143 336.443 52.1143H330.414C330.249 52.1143 330.114 51.98 330.114 51.8143V42.9667C330.114 42.801 330.249 42.6667 330.414 42.6667H336.443C336.609 42.6667 336.743 42.5324 336.743 42.3667V35.1941C336.743 35.0619 336.829 34.9453 336.956 34.907L346.185 32.1169C346.377 32.0587 346.571 32.2029 346.571 32.4041V42.3667C346.571 42.5324 346.706 42.6667 346.871 42.6667H354.881C355.047 42.6667 355.181 42.801 355.181 42.9667V51.8143Z" fill="white"/>
<path d="M387.849 42.9667C387.849 42.801 387.983 42.6667 388.149 42.6667H397.377C397.543 42.6667 397.677 42.801 397.677 42.9667V80.4619C397.677 80.6276 397.543 80.7619 397.377 80.7619H388.149C387.983 80.7619 387.849 80.6276 387.849 80.4619V77.4802C387.849 77.1839 387.452 77.0588 387.268 77.2908C384.866 80.316 381.275 81.8286 376.496 81.8286C372.331 81.8286 368.877 80.4317 366.135 77.6381C363.442 74.8444 362.096 70.9841 362.096 66.0571V42.9667C362.096 42.801 362.231 42.6667 362.396 42.6667H371.625C371.791 42.6667 371.925 42.801 371.925 42.9667V64.8381C371.925 67.3778 372.611 69.3333 373.982 70.7048C375.354 72.0254 377.182 72.6857 379.468 72.6857C382.008 72.6857 384.039 71.8984 385.563 70.3238C387.087 68.7492 387.849 66.3873 387.849 63.2381V42.9667Z" fill="white"/>
<path d="M448.812 41.6C453.181 41.6 456.66 43.0222 459.251 45.8667C461.892 48.7111 463.212 52.5206 463.212 57.2952V80.4619C463.212 80.6276 463.078 80.7619 462.912 80.7619H453.684C453.518 80.7619 453.384 80.6276 453.384 80.4619V57.981C453.384 55.6952 452.825 53.9175 451.708 52.6476C450.59 51.3778 449.016 50.7429 446.984 50.7429C444.749 50.7429 442.997 51.4794 441.727 52.9524C440.508 54.4254 439.898 56.5587 439.898 59.3524V80.4619C439.898 80.6276 439.764 80.7619 439.598 80.7619H430.37C430.204 80.7619 430.07 80.6276 430.07 80.4619V57.981C430.07 55.6952 429.511 53.9175 428.393 52.6476C427.276 51.3778 425.701 50.7429 423.67 50.7429C421.486 50.7429 419.733 51.4794 418.412 52.9524C417.143 54.4254 416.508 56.5587 416.508 59.3524V80.4619C416.508 80.6276 416.373 80.7619 416.208 80.7619H406.979C406.813 80.7619 406.679 80.6276 406.679 80.4619V42.9667C406.679 42.801 406.813 42.6667 406.979 42.6667H416.208C416.373 42.6667 416.508 42.801 416.508 42.9667V45.72C416.508 46.0163 416.904 46.1415 417.089 45.9097C419.375 43.0366 422.711 41.6 427.098 41.6C431.603 41.6 434.974 43.299 437.213 46.6969C437.333 46.8779 437.599 46.8858 437.729 46.7119C440.264 43.304 443.958 41.6 448.812 41.6Z" fill="white"/>
<path d="M80 64C80 72.8366 72.8366 80 64 80C55.1634 80 48 72.8366 48 64C48 55.1634 55.1634 48 64 48C72.8366 48 80 55.1634 80 64Z" fill="white"/>
<path d="M29 64C29 28.6538 46.3269 0 64 0C68.3424 0 72.4828 1.72988 76.2583 4.86387C76.4368 5.0121 76.2481 5.30149 76.0332 5.21375C74.0843 4.4179 72.0666 4 70 4C53.4315 4 40 30.8629 40 64C40 70.9208 40.5859 77.5679 41.6638 83.7538C41.6763 83.8251 41.7262 83.8839 41.7946 83.9077C47.3768 85.8529 53.4203 87.4378 59.7879 88.5606C92.4216 94.3148 121.209 85.7521 124.086 69.4353C124.445 67.4001 124.384 65.3404 123.938 63.2829C123.889 63.0561 124.207 62.9205 124.322 63.1221C126.753 67.3844 127.737 71.7623 126.983 76.0387C123.914 93.4433 92.687 105.531 57.8778 99.3935C53.4308 98.6094 49.1406 97.5657 45.0459 96.3054C44.8913 96.2578 44.7473 96.4056 44.7971 96.5595C50.1414 113.073 59.4327 124 70 124C72.0665 124 74.0843 123.582 76.0333 122.786C76.2481 122.699 76.4368 122.988 76.2583 123.136C72.4828 126.27 68.3424 128 64 128C51.2863 128 38.7519 113.172 32.7181 91.6904C32.7023 91.6339 32.6617 91.5863 32.6084 91.5617C11.7074 81.9169 -1.32909 66.6111 0.927781 53.8117C1.68183 49.5353 4.1044 45.7582 7.84638 42.5843C8.02337 42.4342 8.27559 42.6703 8.15188 42.8666C7.02968 44.6478 6.26775 46.5623 5.9089 48.5975C4.02844 59.2621 13.6819 70.5997 29.7072 78.7814C29.8512 78.8549 30.0199 78.7365 29.9977 78.5764C29.3487 73.8941 29 69.0144 29 64Z" fill="white"/>
</svg>
