<svg width="238" height="206" viewBox="0 0 238 206" fill="none" xmlns="http://www.w3.org/2000/svg">
<path d="M23.6016 166.3C23.6016 166.134 23.7359 166 23.9016 166H30.673C30.8387 166 30.973 166.134 30.973 166.3V205.7C30.973 205.866 30.8387 206 30.673 206H23.9016C23.7359 206 23.6016 205.866 23.6016 205.7V192.072C23.6016 191.786 23.2318 191.656 23.0395 191.866C20.9094 194.203 18.011 195.371 14.3444 195.371C10.4968 195.371 7.20155 193.924 4.45869 191.029C1.75393 188.095 0.40155 184.514 0.40155 180.286C0.40155 176.057 1.75393 172.495 4.45869 169.6C7.20155 166.667 10.4968 165.2 14.3444 165.2C18.011 165.2 20.9094 166.368 23.0395 168.705C23.2318 168.916 23.6016 168.785 23.6016 168.5V166.3ZM10.0016 186.114C11.5254 187.6 13.4301 188.343 15.7158 188.343C18.0015 188.343 19.8873 187.6 21.373 186.114C22.8587 184.59 23.6016 182.648 23.6016 180.286C23.6016 177.924 22.8587 176 21.373 174.514C19.8873 172.99 18.0015 172.229 15.7158 172.229C13.4301 172.229 11.5254 172.99 10.0016 174.514C8.51584 176 7.77298 177.924 7.77298 180.286C7.77298 182.648 8.51584 184.59 10.0016 186.114Z" fill="white"/>
<path d="M56.5716 166.3C56.5716 166.134 56.706 166 56.8716 166H63.6431C63.8088 166 63.9431 166.134 63.9431 166.3V194.271C63.9431 194.437 63.8088 194.571 63.6431 194.571H56.8716C56.706 194.571 56.5716 194.437 56.5716 194.271V192.356C56.5716 192.06 56.1708 191.932 55.9802 192.159C54.1806 194.301 51.5397 195.371 48.0574 195.371C44.9335 195.371 42.3431 194.324 40.2859 192.229C38.2669 190.133 37.2574 187.238 37.2574 183.543V166.3C37.2574 166.134 37.3917 166 37.5574 166H44.3288C44.4945 166 44.6288 166.134 44.6288 166.3V182.629C44.6288 184.533 45.1431 186 46.1716 187.029C47.2002 188.019 48.5716 188.514 50.2859 188.514C52.1907 188.514 53.7145 187.924 54.8574 186.743C56.0002 185.562 56.5716 183.79 56.5716 181.429V166.3Z" fill="white"/>
<path d="M92.4087 166.3C92.4087 166.134 92.543 166 92.7087 166H99.4801C99.6458 166 99.7801 166.134 99.7801 166.3V194.271C99.7801 194.437 99.6458 194.571 99.4801 194.571H92.7087C92.543 194.571 92.4087 194.437 92.4087 194.271V192.06C92.4087 191.776 92.0422 191.645 91.8496 191.853C89.6862 194.199 86.7678 195.371 83.0944 195.371C79.2849 195.371 76.0087 193.924 73.2658 191.029C70.5611 188.095 69.2087 184.514 69.2087 180.286C69.2087 176.057 70.5611 172.495 73.2658 169.6C76.0087 166.667 79.2849 165.2 83.0944 165.2C86.7678 165.2 89.6862 166.373 91.8496 168.718C92.0422 168.927 92.4087 168.796 92.4087 168.512V166.3ZM78.8087 186.114C80.2944 187.6 82.1801 188.343 84.4658 188.343C86.7516 188.343 88.6373 187.6 90.123 186.114C91.6468 184.59 92.4087 182.648 92.4087 180.286C92.4087 177.924 91.6468 176 90.123 174.514C88.6373 172.99 86.7516 172.229 84.4658 172.229C82.1801 172.229 80.2944 172.99 78.8087 174.514C77.323 176 76.5801 177.924 76.5801 180.286C76.5801 182.648 77.323 184.59 78.8087 186.114Z" fill="white"/>
<path d="M122.35 165.2C125.474 165.2 128.045 166.248 130.064 168.343C132.122 170.438 133.15 173.333 133.15 177.029V194.271C133.15 194.437 133.016 194.571 132.85 194.571H126.079C125.913 194.571 125.779 194.437 125.779 194.271V177.943C125.779 176.038 125.265 174.59 124.236 173.6C123.207 172.571 121.836 172.057 120.122 172.057C118.217 172.057 116.693 172.648 115.55 173.829C114.407 175.01 113.836 176.781 113.836 179.143V194.271C113.836 194.437 113.702 194.571 113.536 194.571H106.764C106.599 194.571 106.464 194.437 106.464 194.271V166.3C106.464 166.134 106.599 166 106.764 166H113.536C113.702 166 113.836 166.134 113.836 166.3V168.215C113.836 168.511 114.237 168.639 114.427 168.413C116.227 166.271 118.868 165.2 122.35 165.2Z" fill="white"/>
<path d="M155.787 172.786C155.787 172.951 155.653 173.086 155.487 173.086H149.63C149.464 173.086 149.33 173.22 149.33 173.386V184.971C149.33 185.962 149.578 186.686 150.073 187.143C150.568 187.6 151.292 187.867 152.244 187.943C153.125 187.978 154.2 187.964 155.471 187.902C155.643 187.894 155.787 188.03 155.787 188.202V194.303C155.787 194.456 155.671 194.585 155.52 194.601C150.594 195.126 147.103 194.64 145.044 193.143C142.987 191.619 141.959 188.895 141.959 184.971V173.386C141.959 173.22 141.824 173.086 141.659 173.086H137.287C137.122 173.086 136.987 172.951 136.987 172.786V166.3C136.987 166.134 137.122 166 137.287 166H141.659C141.824 166 141.959 165.866 141.959 165.7V160.451C141.959 160.319 142.045 160.202 142.172 160.164L148.943 158.117C149.136 158.059 149.33 158.203 149.33 158.404V165.7C149.33 165.866 149.464 166 149.63 166H155.487C155.653 166 155.787 166.134 155.787 166.3V172.786Z" fill="white"/>
<path d="M180.288 166.3C180.288 166.134 180.422 166 180.588 166H187.36C187.525 166 187.66 166.134 187.66 166.3V194.271C187.66 194.437 187.525 194.571 187.36 194.571H180.588C180.422 194.571 180.288 194.437 180.288 194.271V192.356C180.288 192.06 179.887 191.932 179.697 192.159C177.897 194.301 175.256 195.371 171.774 195.371C168.65 195.371 166.06 194.324 164.002 192.229C161.983 190.133 160.974 187.238 160.974 183.543V166.3C160.974 166.134 161.108 166 161.274 166H168.045C168.211 166 168.345 166.134 168.345 166.3V182.629C168.345 184.533 168.86 186 169.888 187.029C170.917 188.019 172.288 188.514 174.002 188.514C175.907 188.514 177.431 187.924 178.574 186.743C179.717 185.562 180.288 183.79 180.288 181.429V166.3Z" fill="white"/>
<path d="M226.011 165.2C229.287 165.2 231.897 166.267 233.84 168.4C235.82 170.533 236.811 173.39 236.811 176.971V194.271C236.811 194.437 236.677 194.571 236.511 194.571H229.739C229.574 194.571 229.439 194.437 229.439 194.271V177.486C229.439 175.771 229.02 174.438 228.182 173.486C227.344 172.533 226.163 172.057 224.64 172.057C222.963 172.057 221.649 172.61 220.697 173.714C219.782 174.819 219.325 176.419 219.325 178.514V194.271C219.325 194.437 219.191 194.571 219.025 194.571H212.254C212.088 194.571 211.954 194.437 211.954 194.271V177.486C211.954 175.771 211.535 174.438 210.697 173.486C209.859 172.533 208.678 172.057 207.154 172.057C205.516 172.057 204.201 172.61 203.211 173.714C202.259 174.819 201.782 176.419 201.782 178.514V194.271C201.782 194.437 201.648 194.571 201.482 194.571H194.711C194.545 194.571 194.411 194.437 194.411 194.271V166.3C194.411 166.134 194.545 166 194.711 166H201.482C201.648 166 201.782 166.134 201.782 166.3V168.044C201.782 168.34 202.183 168.468 202.374 168.242C204.083 166.214 206.533 165.2 209.725 165.2C213.061 165.2 215.568 166.442 217.248 168.927C217.369 169.106 217.636 169.114 217.767 168.942C219.666 166.447 222.414 165.2 226.011 165.2Z" fill="white"/>
<path d="M135 64C135 72.8366 127.837 80 119 80C110.163 80 103 72.8366 103 64C103 55.1634 110.163 48 119 48C127.837 48 135 55.1634 135 64Z" fill="white"/>
<path d="M84 64C84 28.6538 101.327 0 119 0C123.342 0 127.483 1.72988 131.258 4.86387C131.437 5.0121 131.248 5.30149 131.033 5.21375C129.084 4.4179 127.067 4 125 4C108.431 4 95 30.8629 95 64C95 70.9208 95.5859 77.5679 96.6638 83.7538C96.6763 83.8251 96.7262 83.8839 96.7946 83.9077C102.377 85.8529 108.42 87.4378 114.788 88.5606C147.422 94.3148 176.209 85.7521 179.086 69.4353C179.445 67.4001 179.384 65.3404 178.938 63.2829C178.889 63.0561 179.207 62.9205 179.322 63.1221C181.753 67.3844 182.737 71.7623 181.983 76.0387C178.914 93.4433 147.687 105.531 112.878 99.3935C108.431 98.6094 104.141 97.5657 100.046 96.3054C99.8913 96.2578 99.7473 96.4056 99.7971 96.5595C105.141 113.073 114.433 124 125 124C127.067 124 129.084 123.582 131.033 122.786C131.248 122.699 131.437 122.988 131.258 123.136C127.483 126.27 123.342 128 119 128C106.286 128 93.7519 113.172 87.7181 91.6904C87.7023 91.6339 87.6617 91.5863 87.6084 91.5617C66.7074 81.9169 53.6709 66.6111 55.9278 53.8117C56.6818 49.5353 59.1044 45.7582 62.8464 42.5843C63.0234 42.4342 63.2756 42.6703 63.1519 42.8666C62.0297 44.6478 61.2678 46.5623 60.9089 48.5975C59.0284 59.2621 68.6819 70.5997 84.7072 78.7814C84.8512 78.8549 85.0199 78.7365 84.9977 78.5764C84.3487 73.8941 84 69.0144 84 64Z" fill="white"/>
</svg>
