<svg width="128" height="128" viewBox="0 0 128 128" fill="none" xmlns="http://www.w3.org/2000/svg">
<path d="M80 64C80 72.8366 72.8366 80 64 80C55.1634 80 48 72.8366 48 64C48 55.1634 55.1634 48 64 48C72.8366 48 80 55.1634 80 64Z" fill="#E0ECFF"/>
<path d="M29 64C29 28.6538 46.3269 0 64 0C68.3424 0 72.4828 1.72988 76.2583 4.86387C76.4368 5.0121 76.2481 5.30149 76.0332 5.21375C74.0843 4.4179 72.0666 4 70 4C53.4315 4 40 30.8629 40 64C40 70.9208 40.5859 77.5679 41.6638 83.7538C41.6763 83.8251 41.7262 83.8839 41.7946 83.9077C47.3768 85.8529 53.4203 87.4378 59.7879 88.5606C92.4216 94.3148 121.209 85.7521 124.086 69.4353C124.445 67.4001 124.384 65.3404 123.938 63.2829C123.889 63.0561 124.207 62.9204 124.322 63.1221C126.753 67.3844 127.737 71.7623 126.983 76.0387C123.914 93.4433 92.687 105.531 57.8778 99.3935C53.4308 98.6094 49.1406 97.5657 45.0459 96.3054C44.8913 96.2578 44.7473 96.4056 44.7971 96.5595C50.1414 113.073 59.4327 124 70 124C72.0665 124 74.0843 123.582 76.0332 122.786C76.2481 122.699 76.4368 122.988 76.2583 123.136C72.4828 126.27 68.3424 128 64 128C51.2863 128 38.7519 113.172 32.7181 91.6904C32.7023 91.6339 32.6617 91.5863 32.6084 91.5617C11.7074 81.9169 -1.32909 66.6111 0.927781 53.8117C1.68183 49.5353 4.1044 45.7582 7.84638 42.5843C8.02337 42.4342 8.27559 42.6703 8.15188 42.8666C7.02968 44.6478 6.26775 46.5623 5.9089 48.5975C4.02844 59.2621 13.6819 70.5997 29.7072 78.7814C29.8512 78.8549 30.0199 78.7365 29.9977 78.5764C29.3487 73.8941 29 69.0144 29 64Z" fill="#E0ECFF"/>
</svg>
